<svg width="250" height="120" viewBox="0 0 250 60" fill="" xmlns="http://www.w3.org/2000/svg">
<path d="M0 59.9511L12.1726 15.3022C14.9749 7.27477 21.9166 8.24767 27.0947 7.97218H60.8839C58.0112 14.244 55.9874 20.6456 43.9028 20.2943L26.6377 20.5437L24.5532 27.1258L49.0635 26.7513C45.383 33.5424 41.1364 38.3338 32.7893 38.6643L21.3251 39.0372L18.5954 47.8456C16.9478 53.0219 10.8595 60.6834 0 59.9511Z" fill="#6168FF"/>
<path fill-rule="evenodd" clip-rule="evenodd" d="M0.549747 59.7058C27.799 58.9696 50.6137 33.0959 61.8275 7.48312L57.7667 7.41836L66.491 0L71.9882 7.48462L67.3202 7.41284C55.6532 34.7674 28.641 61.2461 0.549747 59.7058Z" fill="#FF5574"/>
<path d="M76.3322 26.3585L70.0837 26.361L70.0985 23.2528L76.343 23.2742L76.3322 26.3585Z" fill="#FF5574"/>
<path d="M233.013 26.3889L228.241 26.3914L228.251 23.283L233.02 23.3048L233.013 26.3889Z" fill="#FF5574"/>
<path d="M240.243 39.4978V26.3779H233.887V23.2588H250V26.3779H243.644V39.4978H240.243Z" fill="#6168FF"/>
<path d="M224.02 39.4978C222.908 39.4978 221.982 39.3985 221.242 39.2001C220.501 39.0016 219.908 38.684 219.464 38.2477C219.019 37.811 218.704 37.2397 218.519 36.5332C218.334 35.8268 218.241 34.9577 218.241 33.926V28.8304C218.241 27.8147 218.334 26.9495 218.519 26.2352C218.704 25.5207 219.019 24.9455 219.464 24.5089C219.908 24.0724 220.501 23.7548 221.242 23.5564C221.982 23.358 222.908 23.2588 224.02 23.2588H227.753V26.3305H224.02C223.531 26.3305 223.131 26.3739 222.82 26.4612C222.509 26.5487 222.26 26.6874 222.075 26.8779C221.89 27.0686 221.764 27.3224 221.697 27.64C221.631 27.9573 221.597 28.3543 221.597 28.8304V29.9257L230.595 30.0113V32.8924L221.597 32.8068V33.9499C221.597 34.4419 221.631 34.8466 221.697 35.164C221.764 35.4816 221.886 35.7357 222.064 35.9261C222.242 36.1167 222.49 36.2474 222.808 36.3191C223.127 36.3904 223.531 36.4261 224.02 36.4261H234.598V39.4978H224.02Z" fill="#6168FF"/>
<path d="M214.085 39.8548C213.73 39.8548 213.4 39.7954 213.097 39.6763C212.793 39.5572 212.507 39.3628 212.241 39.0929L201.195 27.9494V39.4978H198.062V24.4018C198.062 23.8938 198.228 23.5167 198.562 23.2706C198.895 23.0247 199.328 22.9016 199.862 22.9016C200.247 22.9016 200.566 22.9573 200.818 23.0681C201.069 23.1793 201.277 23.3222 201.44 23.4968L212.574 34.9975V23.2588H215.774V38.3548C215.774 38.8945 215.619 39.2796 215.308 39.5097C214.997 39.7397 214.589 39.8548 214.085 39.8548Z" fill="#6168FF"/>
<path d="M193.817 39.8548C193.461 39.8548 193.132 39.7954 192.828 39.6763C192.524 39.5572 192.239 39.3628 191.972 39.0929L180.927 27.9494V39.4978H177.793V24.4018C177.793 23.8938 177.96 23.5167 178.293 23.2706C178.627 23.0247 179.06 22.9016 179.593 22.9016C179.979 22.9016 180.297 22.9573 180.549 23.0681C180.801 23.1793 181.008 23.3222 181.171 23.4968L192.305 34.9975V23.2588H195.506V38.3548C195.506 38.8945 195.35 39.2796 195.039 39.5097C194.728 39.7397 194.321 39.8548 193.817 39.8548Z" fill="#6168FF"/>
<path d="M161.303 32.9736H168.637L164.97 26.5685L161.303 32.9736ZM170.214 35.7596H159.725L157.569 39.4978H153.68L162.481 24.4969C162.747 24.0365 163.066 23.6557 163.436 23.3541C163.807 23.0523 164.34 22.9016 165.036 22.9016C165.718 22.9016 166.244 23.0523 166.614 23.3541C166.985 23.6557 167.303 24.0365 167.57 24.4969L176.326 39.4978H172.415L170.214 35.7596ZM149.079 28.3305C149.079 27.9019 149.035 27.5525 148.946 27.2828C148.857 27.013 148.709 26.8066 148.501 26.6637C148.294 26.5208 148.005 26.4256 147.635 26.3779C147.264 26.3305 146.805 26.3066 146.257 26.3066H137.967V31.2592H146.257C146.805 31.2592 147.261 31.2354 147.623 31.1879C147.986 31.1402 148.275 31.0448 148.49 30.9021C148.705 30.7591 148.857 30.5528 148.946 30.2829C149.035 30.0131 149.079 29.6559 149.079 29.2115V28.3305ZM146.834 39.4978L137.967 33.5925V39.4978H134.611V23.2588H146.479C147.546 23.2588 148.457 23.3303 149.212 23.4732C149.968 23.6159 150.587 23.87 151.068 24.2349C151.55 24.6 151.902 25.1 152.124 25.735C152.346 26.3701 152.457 27.1717 152.457 28.1401V29.2589C152.457 30.1957 152.339 30.9695 152.102 31.5805C151.865 32.1917 151.498 32.6758 151.001 33.033C150.505 33.3901 149.879 33.6403 149.124 33.7831C148.368 33.926 147.472 33.9974 146.435 33.9974H143.768L152.657 39.4978H146.834Z" fill="#6168FF"/>
<path d="M120.61 39.4978C119.499 39.4978 118.573 39.3985 117.832 39.2001C117.091 39.0016 116.498 38.684 116.054 38.2477C115.609 37.811 115.294 37.2397 115.109 36.5332C114.924 35.8268 114.832 34.9577 114.832 33.926V23.2588H118.232V33.807C118.232 34.3149 118.28 34.7316 118.376 35.0569C118.473 35.3823 118.624 35.6483 118.832 35.8547C119.039 36.0611 119.317 36.204 119.665 36.2832C120.013 36.3626 120.439 36.4023 120.943 36.4023H126.033C126.536 36.4023 126.962 36.3626 127.311 36.2832C127.659 36.204 127.937 36.0611 128.144 35.8547C128.351 35.6483 128.503 35.3785 128.599 35.0452C128.696 34.7118 128.744 34.291 128.744 33.7831V23.2588H132.1V33.926C132.1 34.9577 132.007 35.8268 131.822 36.5332C131.637 37.2397 131.322 37.811 130.878 38.2477C130.433 38.684 129.84 39.0016 129.1 39.2001C128.359 39.3985 127.425 39.4978 126.299 39.4978H120.61Z" fill="#6168FF"/>
<path d="M103.386 39.4978V26.3779H97.0299V23.2588H113.142V26.3779H106.786V39.4978H103.386Z" fill="#6168FF"/>
<path d="M83.8952 39.4978C82.7839 39.4978 81.858 39.3985 81.1172 39.2001C80.3765 39.0016 79.7837 38.684 79.3393 38.2477C78.8948 37.811 78.5799 37.2397 78.3946 36.5332C78.2094 35.8268 78.117 34.9577 78.117 33.926V23.2588H81.5173V33.807C81.5173 34.3149 81.5654 34.7316 81.6619 35.0569C81.7581 35.3823 81.9098 35.6483 82.1172 35.8547C82.3248 36.0611 82.6025 36.204 82.9507 36.2832C83.2988 36.3626 83.725 36.4023 84.2287 36.4023H89.3179C89.8215 36.4023 90.2478 36.3626 90.5959 36.2832C90.9441 36.204 91.2218 36.0611 91.4293 35.8547C91.6367 35.6483 91.7886 35.3785 91.8847 35.0452C91.9812 34.7118 92.0292 34.291 92.0292 33.7831V23.2588H95.3851V33.926C95.3851 34.9577 95.2927 35.8268 95.1074 36.5332C94.9222 37.2397 94.6074 37.811 94.1628 38.2477C93.7183 38.684 93.1258 39.0016 92.3849 39.2001C91.6443 39.3985 90.7106 39.4978 89.5846 39.4978H83.8952Z" fill="#6168FF"/>
<path d="M63.5823 33.4021V39.4978H60.2264V28.8304C60.2264 27.8147 60.3188 26.9495 60.5041 26.2352C60.6892 25.5207 61.0041 24.9455 61.4488 24.5089C61.8932 24.0724 62.4858 23.7548 63.2267 23.5564C63.9674 23.358 64.8935 23.2588 66.0046 23.2588H69.5606V26.3779H66.0936C65.1602 26.3779 64.5081 26.5843 64.1379 26.997C63.7674 27.4098 63.5823 28.0923 63.5823 29.0448V30.3307L72.8463 30.3735V33.4451L63.5823 33.4021Z" fill="#6168FF"/>
<path fill-rule="evenodd" clip-rule="evenodd" d="M59.9855 42.5731C59.9855 42.3742 60.1503 42.213 60.3535 42.213H243.622C243.825 42.213 243.99 42.3742 243.99 42.5731V44.0134C243.99 44.2123 243.825 44.3735 243.622 44.3735H60.3535C60.1503 44.3735 59.9855 44.2123 59.9855 44.0134V42.5731Z" fill="#FF5574"/>
</svg>
